<?xml version="1.0" encoding="utf-8"?>
<!-- Generator: Adobe Illustrator 26.1.0, SVG Export Plug-In . SVG Version: 6.00 Build 0)  -->
<svg version="1.1" id="Layer_1" xmlns="http://www.w3.org/2000/svg" xmlns:xlink="http://www.w3.org/1999/xlink" x="0px" y="0px"
	 viewBox="0 0 319.7 319.7" style="enable-background:new 0 0 319.7 319.7;" xml:space="preserve">
<style type="text/css">
	.st0{fill:#FFFFFF;}
</style>
<g id="XMLID_783_">
	<path id="XMLID_784_" class="st0" d="M204.1,57.5c-4.4-2.3-9.8-2.1-14,0.7L112,109H43.6c-7.5,0-13.6,5.9-13.6,13.3v106.2
		c0,7.3,6.1,13.3,13.6,13.3H112l78.1,50.9c2.3,1.5,4.9,2.2,7.5,2.2c2.2,0,4.4-0.5,6.4-1.6c4.4-2.3,7.2-6.8,7.2-11.7V69.2
		C211.2,64.3,208.5,59.8,204.1,57.5z M184,256.8l-60.4-39.3c-2.2-1.5-4.9-2.2-7.5-2.2H57.2v-79.7h58.9c2.7,0,5.3-0.8,7.5-2.2L184,94
		V256.8z"/>
	<path id="XMLID_787_" class="st0" d="M303,175.4l12.8-12.5c5.3-5.2,5.3-13.6,0-18.8c-5.3-5.2-13.9-5.2-19.2,0l-12.8,12.5
		l-12.8-12.5c-5.3-5.2-13.9-5.2-19.2,0c-5.3,5.2-5.3,13.6,0,18.8l12.8,12.5l-12.8,12.5c-5.3,5.2-5.3,13.6,0,18.8
		c2.7,2.6,6.1,3.9,9.6,3.9c3.5,0,7-1.3,9.6-3.9l12.8-12.5l12.8,12.5c2.7,2.6,6.1,3.9,9.6,3.9c3.5,0,7-1.3,9.6-3.9
		c5.3-5.2,5.3-13.6,0-18.8L303,175.4z"/>
</g>
</svg>
